<svg width="71" height="37" viewBox="0 0 71 37" fill="none" xmlns="http://www.w3.org/2000/svg">
  <g clip-path="url(#clip0_5101_117503)">
    <path d="M36.134 37H31.093L30.2104 30.2906H24.0914L23.2265 37H18.6357L23.73 0H31.0456L36.134 37ZM24.7252 25.2661H29.547L27.1361 6.57194L24.7252 25.2661Z" fill="#8A0F0C" />
    <path d="M57.9561 8.50767V9.83401C57.9561 13.6398 56.955 16.0714 54.7277 17.2842C57.4111 18.4791 58.4536 21.305 58.4536 25.2123V28.1996C58.4536 33.9052 55.865 36.9701 50.8655 36.9701H42.999V0H50.5457C55.7288 0 57.9561 2.80203 57.9561 8.50767ZM47.9808 5.28742V15.0677H49.9355C51.8015 15.0677 52.9388 14.1117 52.9388 11.1544V9.09317C52.9388 6.44647 52.1628 5.28742 50.3917 5.28742H47.9808ZM47.9808 20.3491V31.7006H50.8478C52.5301 31.7006 53.4364 30.7985 53.4364 28.0502V24.824C53.4364 21.3887 52.4827 20.3312 50.208 20.3312L47.9808 20.3491Z" fill="#0F265C" />
    <path d="M68.5002 5.98047L66.0005 8.48378V11.0468L68.5002 8.5256L71 11.0468V8.48378L68.5002 5.98047Z" fill="#0F265C" />
    <path d="M71 17.0034V14.4583L68.5002 11.955L66.0005 14.4583V17.0034L68.5002 14.4822L71 17.0034Z" fill="#0F265C" />
    <path d="M68.5002 17.9115L66.0005 20.4148V37H71V20.4148L68.5002 17.9115Z" fill="#0F265C" />
    <path d="M68.5002 2.55708L71 5.07234V0H66.0005V5.07234L68.5002 2.55708Z" fill="#0F265C" />
    <path d="M4.9995 16.9974V14.4463L2.5116 11.955L0 14.4702V17.0153L2.5116 14.4822L4.9995 16.9974Z" fill="#8A0F0C" />
    <path d="M4.9995 5.06636V0H0V5.08429L2.5116 2.55708L4.9995 5.06636Z" fill="#8A0F0C" />
    <path d="M4.9995 31.7185V20.4029L2.5116 17.9115L0 20.4268V37H13.2273V31.7185H4.9995Z" fill="#8A0F0C" />
    <path d="M2.5116 8.5256L4.9995 11.0409V8.4778L2.5116 5.98047L0 8.49573V11.0588L2.5116 8.5256Z" fill="#8A0F0C" />
  </g>
  <defs>
    <clipPath id="clip0_5101_117503">
      <rect width="71" height="37" fill="white" />
    </clipPath>
  </defs>
</svg>