<svg width="48" height="48" viewBox="0 0 48 48" fill="none" xmlns="http://www.w3.org/2000/svg">
  <path d="M47.4058 11.3828C47.4058 5.17188 42.3179 0.0839844 36.1069 0.0839844C31.2925 0.0839844 27.1519 3.14062 25.5405 7.4082H8.3335V1.71484H6.29248V7.41797H0.394043V47.916H43.2358V20.123C45.7749 18.0527 47.4058 14.8984 47.4058 11.3828ZM36.1069 2.125C41.2925 2.125 45.4722 6.19727 45.3647 11.3828C45.3647 16.4707 41.1948 20.6406 36.1069 20.6406C31.019 20.6406 26.8491 16.4707 26.8491 11.3828C26.8491 6.29492 31.019 2.125 36.1069 2.125ZM24.9839 9.44922C24.8765 10.0742 24.8179 10.7285 24.8179 11.3828C24.8179 13.8926 25.6479 16.2168 27.0542 18.1016H2.32764V9.44922H24.9839ZM41.1948 45.875H2.32764V20.1328H28.9878V20.123C30.9312 21.7148 33.4214 22.6719 36.1069 22.6719C37.9331 22.6719 39.6616 22.2324 41.1948 21.4512V45.875Z" fill="#232323" />
  <path d="M41.3999 13.5215L37.1323 10.7676V3.0332H35.1987V11.8906L40.2866 15.25L41.3999 13.5215Z" fill="#232323" />
  <path d="M12.0933 28.2773H14.6421V39.2637H17.5913V25.7285H12.0933V28.2773Z" fill="#232323" />
  <path d="M25.9312 25.3184C24.0952 25.3184 22.6792 25.9336 21.7612 27.252C20.8433 28.4727 20.3354 30.2012 20.3354 32.3398C20.3354 34.4785 20.8433 36.1094 21.7612 37.4277C22.6792 38.7461 24.105 39.3613 25.9312 39.3613C27.8647 39.3613 29.1831 38.7461 30.1011 37.4277C31.019 36.207 31.5269 34.4785 31.5269 32.3398C31.5269 30.2012 31.019 28.5703 30.1011 27.252C29.1929 25.9336 27.7671 25.3184 25.9312 25.3184ZM28.0698 35.6016C27.562 36.4121 26.9468 36.8223 26.0386 36.8223C25.1206 36.8223 24.4077 36.4121 24.0073 35.6016C23.5972 34.791 23.3921 33.668 23.3921 32.3496C23.3921 31.0312 23.5972 29.9082 24.0073 29.0977C24.4175 28.2871 25.0229 27.877 26.0386 27.877C26.9565 27.877 27.6694 28.2871 28.0698 29.0977C28.48 29.9082 28.6851 31.0312 28.6851 32.3496C28.6851 33.668 28.48 34.791 28.0698 35.6016Z" fill="#232323" />
</svg>